<svg width="100" height="100" viewBox="0 0 100 100" fill="none" xmlns="http://www.w3.org/2000/svg">
<path d="M33.5523 40.6788C32.2995 38.6326 31.7378 36.2459 32.695 34.0778C33.652 31.8612 35.7956 30.0831 37.9392 28.4265C43.9069 24.0174 51.2616 20.7778 57.0984 16.2962C60.3298 13.8358 63.0007 10.8884 63.9237 7.50233C64.6825 5.01799 64.3201 2.46046 63.6278 0C66.7276 2.60645 67.75 6.33325 66.8592 9.69489C65.9033 13.4702 63.0664 16.8072 59.7361 19.6814C57.0653 21.9958 53.9978 24.0418 50.7995 25.9422C47.0732 28.1588 43.4131 30.5457 41.0721 33.6637C39.0925 36.1966 38.6307 39.3146 39.9832 42.0672C42.193 46.7925 47.3368 50.3003 50.1403 54.7576C47.0398 52.7357 44.0065 50.641 41.1696 48.4247C38.2028 46.0862 35.3992 43.6021 33.5523 40.6788ZM50.3706 36.976C49.8102 40.8492 52.5465 44.5028 55.8121 47.3774C57.3943 48.6682 58.7466 50.2515 58.812 52.0543C58.8785 54.4648 57.0327 56.7067 54.6567 58.2893C55.2181 58.2412 55.6137 57.8754 56.0755 57.6807C59.637 55.9999 63.0659 53.8807 64.8136 50.9827C65.968 49.0095 65.7044 46.6707 64.1879 44.8435C62.4064 42.7001 60.0657 40.8001 58.6809 38.4619C57.9213 37.1467 57.6577 35.6122 58.2845 34.2238C59.1095 32.3485 60.8899 30.8136 62.7699 29.4739C67.9468 25.8449 74.2123 23.262 80.2145 20.4369C72.6296 22.0444 65.144 24.2612 58.7466 27.7448C54.6901 29.9856 50.9315 33.1032 50.3706 36.976ZM86.4151 55.2938C90.0097 55.4402 93.5371 57.3885 94.1973 60.0682C94.8242 62.3822 93.3077 64.6717 91.3612 66.4253C88.1621 69.2507 83.8417 71.2728 79.4901 73.0024C79.0604 73.1963 78.698 73.4401 78.3681 73.7084C84.1064 72.6364 89.8436 71.0296 94.4941 68.2767C97.0653 66.6934 99.3408 64.5979 99.836 62.0891C100.298 59.9216 99.0783 57.6805 96.9013 56.2435C94.2625 54.4646 90.5372 53.8075 87.0408 54.1488C85.0292 54.3435 82.8201 54.6601 81.4353 55.9024C83.0848 55.6596 84.6993 55.1719 86.4151 55.2938ZM14.8218 62.2595C19.1411 63.1122 23.5933 63.356 28.0122 63.5754C31.9693 63.7701 35.9272 63.8192 39.9177 63.7946C50.2061 63.6734 60.5606 63.1613 70.6513 61.5051C71.6072 61.3349 72.663 61.213 73.5213 60.7746C75.2029 59.9703 77.0485 59.3369 78.863 58.7036C70.6513 59.6779 62.407 60.5069 54.0972 60.8963C45.6881 61.286 37.2125 61.5296 28.771 61.1157C26.3638 60.9455 23.8901 60.8474 21.6479 60.165C21.1196 59.9948 20.394 59.6545 20.6576 59.1421C21.1527 58.4844 22.142 58.1682 22.9994 57.8271C26.6274 56.5603 30.5843 55.8543 34.4428 55.0261C27.8138 54.9525 21.2182 56.1946 15.1516 58.1192C13.7991 58.6067 12.2824 58.9961 11.1945 59.8245C10.7648 60.1648 10.7648 60.7505 11.26 61.0421C12.2495 61.6999 13.5678 61.992 14.8218 62.2595ZM68.2449 68.9587C62.4735 69.7139 56.6687 70.421 50.8316 70.6396C44.4341 70.9562 38.0367 70.6879 31.7055 70.201C30.4857 70.0791 29.2651 69.9333 28.1773 69.5194C27.6167 69.2756 27.0563 68.8861 27.0895 68.3738C27.1549 67.5703 28.0777 67.0104 28.7379 66.4255C26.6939 66.9615 24.6489 67.5212 22.9342 68.521C22.2077 68.9351 21.4829 69.5922 21.6802 70.3229C21.9783 71.1754 23.0992 71.6869 24.0885 72.0764C26.5281 73.0026 29.2654 73.4161 31.9373 73.7816C38.6961 74.5859 45.5887 74.6104 52.3817 74.2685C59.5724 73.8546 66.7276 72.9781 73.6856 71.4676C71.7071 70.8104 69.8271 70.0544 68.2449 68.9587ZM32.0025 77.3875C30.1558 77.7769 28.2759 78.2401 26.7593 79.1403C25.9995 79.5789 25.4068 80.3348 25.7701 81.0411C26.2319 81.9421 27.3862 82.4789 28.4732 82.9403C31.3102 84.0859 34.5085 84.6211 37.6411 85.0358C44.7322 85.8634 52.0193 85.7419 59.0767 84.8166C63.2643 84.2317 67.4527 83.4035 71.3436 82.1131C68.8044 81.3335 66.3317 80.4562 63.9576 79.4335C59.8355 79.9693 55.6794 80.53 51.4584 80.7247C45.8862 81.0413 40.2465 80.7002 34.6733 80.1889C33.3539 79.9695 31.7055 79.8722 30.815 79.0194C30.3543 78.3123 31.409 77.8008 32.0025 77.3875ZM77.1152 93.0491C81.7315 92.3438 86.3819 91.5385 90.6027 89.956C91.921 89.3949 93.5371 88.7859 93.9668 87.6174C94.1973 86.4971 92.6143 85.9121 91.4931 85.4491C92.1854 86.0348 92.6472 86.8869 91.9541 87.5685C90.7998 88.7139 88.8223 89.1519 87.074 89.5904C81.6003 90.7352 75.9275 91.1982 70.2888 91.6612C55.3503 92.6597 40.3122 92.9035 25.3745 91.9779C20.3619 91.5877 15.2494 91.1738 10.4681 89.8587C9.71036 89.6149 8.55602 89.371 8.55602 88.6156C8.85196 87.9593 9.71036 87.5928 10.4681 87.2761C13.8977 85.9855 17.7231 85.2787 21.5483 85.1084C20.4281 84.6209 19.1087 84.5726 17.8227 84.5971C14.6234 84.6701 11.4907 85.2787 8.45747 86.0348C5.85207 86.7401 3.18097 87.5202 1.1028 88.9333C0.278581 89.4685 -0.479142 90.4914 0.377136 91.2227C1.69652 92.2702 3.74158 92.5378 5.55402 92.8544C15.7112 94.1458 25.9995 94.8755 36.2897 95.1438C49.9422 95.437 63.6932 94.9982 77.1152 93.0491ZM90.6358 94.365C84.4357 95.8264 78.0057 96.6299 71.6074 97.2878C60.5606 98.3107 49.4139 98.6274 38.3006 98.3843C31.5407 98.1896 24.7808 97.8485 18.1187 97.0195C19.6686 97.7992 21.5817 98.0424 23.3629 98.4082C30.8492 99.5777 38.5318 99.7968 46.1501 99.9671C57.3278 100.113 68.5074 99.7968 79.5222 98.5056C84.7332 97.8246 89.9764 96.9959 94.6581 95.1931C97.0995 94.2432 99.5732 92.781 100 90.6624C97.5276 92.6105 93.9668 93.5123 90.6358 94.365Z" fill="white"/>
</svg>
