<svg width="120" height="120" viewBox="0 0 120 120" fill="none" xmlns="http://www.w3.org/2000/svg">
<path d="M32.5 40C36.6421 40 40 36.6421 40 32.5C40 28.3579 36.6421 25 32.5 25C28.3579 25 25 28.3579 25 32.5C25 36.6421 28.3579 40 32.5 40Z" fill="white"/>
<path d="M25 50C25 47.2386 27.2386 45 30 45H35C37.7614 45 40 47.2385 40 50V90C40 92.7615 37.7614 95 35 95H30C27.2386 95 25 92.7615 25 90V50Z" fill="white"/>
<path d="M55 95H60C62.7615 95 65 92.7615 65 90V67.5C65 60 80 55 80 65V90.002C80 92.7635 82.2385 95 85 95H90C92.7615 95 95 92.7615 95 90V60C95 50 87.5 45 77.5 45C67.5 45 65 52.5 65 52.5V50C65 47.2385 62.7615 45 60 45H55C52.2385 45 50 47.2386 50 50V90C50 92.7615 52.2385 95 55 95Z" fill="white"/>
<path fill-rule="evenodd" clip-rule="evenodd" d="M100 5C108.285 5 115 11.7158 115 20V100C115 108.285 108.285 115 100 115H20C11.7158 115 5 108.285 5 100V20C5 11.7158 11.7158 5 20 5H100ZM100 15C102.761 15 105 17.2386 105 20V100C105 102.761 102.761 105 100 105H20C17.2386 105 15 102.761 15 100V20C15 17.2386 17.2386 15 20 15H100Z" fill="white"/>
</svg>
