<svg width="90" height="82" viewBox="0 0 90 82" fill="none" xmlns="http://www.w3.org/2000/svg">
<path d="M44.9999 33.1249C46.5374 33.125 48.0405 33.58 49.32 34.4325C50.5994 35.285 51.5981 36.497 52.1902 37.9159C52.7823 39.3348 52.9414 40.8972 52.6474 42.4063C52.3535 43.9154 51.6196 45.3038 50.5382 46.3967C49.4569 47.4897 48.0763 48.2383 46.5704 48.5482C45.0645 48.8582 43.5006 48.7158 42.0755 48.1388C40.6504 47.5618 39.4278 46.5761 38.5617 45.3058C37.6956 44.0355 37.2247 42.5373 37.2083 40.9999C37.2028 39.9712 37.4 38.9515 37.7886 37.9991C38.1772 37.0466 38.7496 36.18 39.4731 35.4487C40.1966 34.7174 41.0571 34.1358 42.0054 33.7371C42.9537 33.3384 43.9712 33.1304 44.9999 33.1249ZM25.7083 74.3333C28.3333 75.9166 34.0416 73.4999 40.7083 67.2499C38.48 64.7178 36.3802 62.0756 34.4166 59.3333C31.0559 58.9569 27.7177 58.4005 24.4166 57.6666C22.2916 66.5833 23.0833 72.7083 25.7083 74.3333ZM28.6666 50.4166L27.4583 48.2916C26.9872 49.4619 26.5838 50.6583 26.2499 51.8749C27.3749 52.1249 28.6249 52.3333 29.9166 52.5416L28.6666 50.4166ZM55.9166 47.2499L59.2916 40.9999L55.9166 34.7499C54.6666 32.5416 53.3333 30.5833 52.1249 28.6249C49.8749 28.4999 47.4999 28.4999 44.9999 28.4999C42.4999 28.4999 40.1249 28.4999 37.8749 28.4999C36.6666 30.4583 35.3333 32.4166 34.0833 34.6249L30.7083 40.9999L34.0833 47.2499C35.3333 49.4583 36.6666 51.4166 37.8749 53.3749C40.1249 53.3749 42.4999 53.3749 44.9999 53.3749C47.4999 53.3749 49.8749 53.3749 52.1249 53.3749C53.3333 51.4166 54.6666 49.4583 55.9166 47.2499ZM44.9999 19.2499C44.2083 20.1666 43.3749 21.1249 42.5416 22.2499H47.4583C46.6249 21.1249 45.7916 20.1666 44.9999 19.2499ZM44.9999 62.7499C45.7916 61.8333 46.6249 60.8749 47.4583 59.7499H42.5416C43.3749 60.8749 44.2083 61.8333 44.9999 62.7499ZM64.2499 7.66659C61.6666 6.08326 55.9166 8.49992 49.2916 14.7499C51.5198 17.282 53.6196 19.9242 55.5832 22.6666C58.9409 22.9879 62.279 23.4886 65.5833 24.1666C67.7083 15.2499 66.9166 9.12493 64.2499 7.49993M61.3332 31.4166L62.5416 33.5416C63.0126 32.3713 63.416 31.1748 63.7499 29.9583C62.6249 29.7083 61.3749 29.4999 60.0832 29.2916L61.3332 31.4166ZM67.3749 2.24993C73.4999 5.74993 74.1666 14.9583 71.5416 25.7083C82.1249 28.8333 89.7499 34.0416 89.7499 41.0416C89.7499 48.0416 82.1249 53.2499 71.5416 56.3749C74.1249 67.1249 73.4583 76.3333 67.3749 79.8333C61.2916 83.3333 52.9999 79.3333 44.9999 71.7083C36.9999 79.3333 28.7083 83.3333 22.5833 79.8333C16.4583 76.3333 15.8333 67.3333 18.4166 56.3749C7.83325 53.2499 0.208252 48.0416 0.208252 41.0416C0.208252 34.0416 7.83325 28.7916 18.4166 25.6666C15.8333 14.9166 16.4999 5.70826 22.5833 2.20826C28.6666 -1.29174 36.9999 2.70826 44.9999 10.3333C52.9999 2.70826 61.2916 -1.29174 67.3749 2.20826M66.1666 40.9999C67.6137 44.0672 68.8933 47.2107 69.9999 50.4166C78.7499 47.7916 83.6666 44.0416 83.6666 40.9999C83.6666 37.9583 78.6249 34.2083 69.9999 31.5833C68.8933 34.7891 67.6137 37.9327 66.1666 40.9999ZM23.8333 40.9999C22.3862 37.9327 21.1065 34.7891 19.9999 31.5833C11.2499 34.2083 6.33325 37.9583 6.33325 40.9999C6.33325 44.0416 11.3749 47.7916 19.9999 50.4166C21.1065 47.2107 22.3862 44.0672 23.8333 40.9999ZM61.3332 50.4166L60.0832 52.5416C61.3749 52.5416 62.6249 52.1249 63.7499 51.8749C63.416 50.6583 63.0126 49.4619 62.5416 48.2916L61.3332 50.4166ZM49.1666 67.2499C55.7916 73.4999 61.6666 75.9166 64.1249 74.3333C66.5833 72.7499 67.5833 66.7499 65.4583 57.6666C62.154 58.3445 58.8159 58.8453 55.4583 59.1666C53.4992 61.9658 51.3993 64.6637 49.1666 67.2499ZM28.6666 31.5833L29.9166 29.4583C28.6249 29.4583 27.3749 29.8749 26.2499 30.1249C26.5838 31.3415 26.9872 32.5379 27.4583 33.7083L28.6666 31.5833ZM40.8333 14.7499C34.0833 8.49992 28.3333 6.08326 25.7083 7.66659C23.0833 9.24992 22.2916 15.2499 24.4166 24.3333C27.7208 23.6553 31.0589 23.1546 34.4166 22.8333C36.4162 20.0311 38.5579 17.3332 40.8333 14.7499Z" fill="white"/>
</svg>
